<?xml version="1.0" standalone="no"?>
<!DOCTYPE svg PUBLIC "-//W3C//DTD SVG 20010904//EN"
 "http://www.w3.org/TR/2001/REC-SVG-20010904/DTD/svg10.dtd">
<svg version="1.0" xmlns="http://www.w3.org/2000/svg"
 width="500.000000pt" height="500.000000pt" viewBox="0 0 500.000000 500.000000"
 preserveAspectRatio="xMidYMid meet">
<metadata>
Created by potrace 1.11, written by Peter Selinger 2001-2013
</metadata>
<g transform="translate(0.000000,500.000000) scale(0.100000,-0.100000)"
fill="#000000" stroke="none">
<path d="M2560 4352 c-14 -2 -42 -8 -64 -13 -33 -9 -37 -13 -33 -35 5 -29 -13
-31 -69 -8 -52 22 -228 20 -263 -2 -23 -16 -128 -49 -186 -60 -50 -9 -274
-106 -329 -143 -21 -14 -60 -36 -85 -49 -78 -39 -165 -94 -186 -117 -11 -12
-35 -30 -54 -41 -41 -23 -98 -77 -132 -124 -37 -51 -90 -150 -82 -150 5 0 4
-4 -2 -8 -21 -15 -72 -141 -82 -202 -8 -50 -11 -203 -4 -215 13 -23 13 -40 5
-143 -7 -86 11 -148 59 -199 34 -36 51 -40 73 -19 18 18 17 36 -1 60 -17 22
-9 46 40 118 38 57 43 79 21 98 -13 10 -13 16 -1 43 7 18 22 55 33 83 31 80
87 161 132 189 23 14 43 32 47 40 3 8 13 15 24 15 33 0 67 22 74 47 3 13 9 22
14 19 4 -3 25 6 45 20 29 20 45 25 71 20 24 -5 45 -1 74 15 31 16 51 19 88 15
37 -4 63 1 108 20 37 15 80 24 112 24 28 0 54 4 57 9 3 5 15 7 25 4 11 -3 33
5 50 18 30 22 32 22 66 6 19 -9 53 -20 75 -23 36 -6 38 -5 33 16 -5 18 -3 21
13 17 61 -19 126 -27 203 -27 126 2 233 -9 258 -26 20 -13 27 -13 59 1 49 20
62 19 147 -10 83 -30 112 -27 152 15 32 34 55 37 90 14 43 -28 61 4 85 151 11
70 11 70 -24 140 -19 39 -47 82 -63 98 -168 164 -206 196 -271 230 -53 28 -87
39 -129 41 -32 2 -69 8 -83 14 -14 5 -36 7 -50 5 -14 -3 -32 -6 -40 -7 -8 -2
-28 2 -45 9 -16 6 -41 10 -55 7z"/>
<path d="M3615 2998 c-27 -3 -60 -9 -72 -12 -25 -5 -156 -67 -163 -76 -8 -11
-154 -41 -198 -42 -22 0 -49 5 -62 12 -44 24 -195 21 -324 -5 -65 -14 -127
-27 -137 -30 -11 -4 -30 -8 -44 -11 -13 -2 -37 -9 -52 -16 -16 -6 -30 -12 -33
-13 -3 -1 -22 -9 -43 -18 -26 -11 -63 -16 -125 -15 -90 1 -111 -1 -277 -33
-55 -10 -113 -21 -130 -24 -33 -5 -49 -9 -115 -23 -42 -10 -96 -20 -145 -27
-11 -2 -22 -4 -25 -5 -3 -1 -9 -2 -13 -1 -5 1 -32 -9 -60 -23 -29 -13 -65 -29
-82 -36 l-30 -12 25 -14 c14 -7 32 -13 41 -14 8 0 44 -11 78 -25 86 -35 127
-39 202 -20 35 9 71 18 79 20 22 4 122 35 145 45 65 28 293 84 378 94 72 8 88
-13 111 -139 38 -214 57 -249 155 -286 46 -17 69 -20 126 -15 119 10 173 28
223 75 18 17 36 31 40 31 24 1 121 224 129 295 5 49 22 85 47 99 14 8 20 8 23
-2 3 -7 22 -34 43 -61 21 -26 49 -70 63 -97 28 -55 44 -75 119 -151 29 -30 61
-53 73 -53 45 0 100 24 135 59 67 67 90 147 95 331 2 79 9 137 18 159 21 50
12 69 -37 75 -76 10 -131 12 -181 4z m85 -42 c0 11 41 -19 55 -40 14 -21 20
-50 28 -137 10 -100 -30 -264 -76 -309 -51 -49 -148 -57 -190 -15 -8 8 -17 11
-21 8 -3 -4 -6 0 -6 7 0 7 -6 21 -14 29 -8 9 -29 45 -47 81 -40 82 -50 169
-25 235 37 95 173 168 269 143 15 -3 27 -5 27 -2z m-582 -132 c58 -26 70 -64
53 -166 -7 -40 -12 -77 -10 -83 4 -16 -53 -145 -76 -173 -49 -60 -87 -87 -170
-117 -48 -18 -150 -16 -205 3 -64 22 -86 51 -101 134 -5 29 -12 67 -15 83 -4
17 -8 65 -9 108 -5 106 14 159 63 183 108 51 383 68 470 28z"/>
<path d="M1954 2229 c-25 -37 -26 -42 -16 -96 6 -32 14 -78 17 -103 4 -25 13
-67 21 -94 28 -96 15 -126 -45 -103 -33 12 -44 6 -55 -29 -4 -13 1 -27 13 -41
18 -19 25 -41 22 -70 0 -7 -19 -17 -41 -23 -45 -12 -48 -21 -20 -57 15 -20 17
-29 9 -45 -8 -16 -6 -24 15 -44 27 -28 26 -45 -7 -81 -26 -29 -19 -36 15 -19
23 12 27 12 32 0 8 -21 -3 -42 -26 -50 -20 -6 -19 -7 7 -30 15 -13 36 -40 47
-61 11 -21 25 -43 32 -48 7 -6 16 -20 20 -32 5 -16 23 -27 61 -39 45 -15 55
-22 60 -45 l6 -28 20 20 c16 16 23 18 35 8 8 -6 14 -20 14 -30 0 -16 5 -14 28
13 34 37 54 34 77 -16 9 -19 41 -58 71 -86 30 -28 54 -55 54 -60 0 -5 9 -14
20 -20 11 -6 20 -8 20 -4 0 3 12 -2 28 -12 15 -10 42 -17 60 -15 24 1 39 -4
52 -19 18 -21 20 -21 52 -4 18 9 40 22 48 30 21 18 57 11 110 -20 35 -20 58
-26 107 -26 72 0 96 -9 180 -68 57 -39 66 -43 105 -37 54 8 99 27 117 48 18
22 28 21 34 -2 8 -32 43 -14 66 34 l20 43 76 -3 c73 -2 78 -1 106 26 16 16 33
29 37 29 11 0 72 57 72 67 0 5 18 30 40 57 27 32 40 58 40 78 0 22 -4 29 -15
24 -19 -7 -45 31 -45 66 0 31 24 60 45 52 8 -4 15 -2 15 4 0 5 -11 13 -25 16
-28 7 -33 24 -10 32 21 9 8 24 -21 24 -13 0 -24 5 -24 10 0 6 5 10 11 10 6 0
9 10 7 23 -2 16 -11 23 -30 25 -33 4 -34 7 -9 39 19 23 18 51 -1 64 -5 3 -11
25 -13 48 -3 23 -14 55 -25 71 -26 37 -25 54 5 84 33 33 31 41 -5 42 -17 1
-33 4 -36 7 -3 3 0 27 6 54 17 65 16 108 -1 124 -32 32 -168 128 -212 151 -52
28 -84 27 -116 -3 -12 -11 -21 -18 -21 -15 0 2 -13 -8 -28 -22 -16 -15 -38
-34 -49 -43 -11 -10 -25 -24 -30 -33 -5 -9 -20 -18 -34 -21 -13 -3 -38 -20
-56 -40 -36 -41 -48 -43 -73 -12 -23 27 -33 18 -34 -30 -2 -54 -12 -66 -51
-60 -32 5 -33 4 -46 -41 -7 -26 -12 -53 -10 -61 10 -50 -24 -75 -70 -51 -23
13 -26 81 -5 119 17 30 9 68 -18 87 -19 13 -22 13 -38 -6 -22 -27 -25 -26 -20
14 6 51 -19 57 -44 11 -7 -12 -22 -20 -38 -20 -15 -1 -31 -7 -36 -15 -7 -12
-10 -12 -16 3 -3 9 -4 26 -1 37 6 24 -9 36 -27 20 -11 -8 -15 -8 -18 2 -4 10
-13 9 -47 -2 -33 -11 -44 -11 -50 -1 -4 6 -21 14 -37 17 -65 11 -70 16 -65 66
1 10 -14 27 -37 42 -22 14 -42 36 -46 49 -5 23 -10 25 -71 25 -78 0 -100 14
-109 71 -7 48 -35 80 -74 85 -27 3 -35 -2 -58 -35z m1553 -283 c3 -3 7 -30 8
-58 1 -29 6 -62 12 -73 26 -50 35 -123 23 -192 -6 -38 -17 -76 -24 -85 -14
-19 -61 -40 -70 -31 -9 10 -7 74 4 112 5 19 8 37 5 39 -2 2 -39 -8 -82 -23
-43 -15 -86 -28 -95 -30 -35 -7 -76 -39 -81 -62 -5 -28 13 -46 33 -33 46 29
108 -10 78 -48 -27 -36 -64 -70 -99 -90 -37 -22 -79 -29 -79 -14 0 5 -11 22
-25 38 -14 16 -25 39 -25 51 0 11 -19 45 -42 73 -24 29 -48 62 -55 74 -27 46
15 107 87 126 21 6 56 26 76 45 20 19 49 40 65 47 21 9 33 24 41 50 15 50 49
80 101 88 49 8 135 5 144 -4z"/>
<path d="M1727 1967 c-47 -27 -64 -66 -47 -108 19 -44 52 -63 103 -57 53 6 87
33 87 70 0 36 -20 78 -37 78 -7 0 -13 4 -13 9 0 5 -13 14 -28 19 -23 8 -36 6
-65 -11z m87 -38 c14 -11 26 -29 26 -39 0 -22 -45 -60 -70 -60 -25 0 -58 31
-61 55 -3 37 1 46 24 55 35 14 52 12 81 -11z"/>
</g>
</svg>
